<svg width="465" height="530" viewBox="0 0 465 530" fill="none" xmlns="http://www.w3.org/2000/svg">
<path d="M306.633 14.4129C357.813 -22.2651 428.839 15.6338 426.866 78.5686L420.631 277.472C419.321 319.286 384.464 352.178 342.645 351.064L81.0556 344.096C8.23461 342.157 -20.4031 248.783 38.8086 206.349L306.633 14.4129Z" fill="#62D5FA"/>
<path d="M0.409303 104.886C-0.219682 47.7665 60.0293 10.396 110.921 36.3391L422.613 195.23C475.357 222.118 478.467 296.32 428.157 327.525L120.317 518.468C70.0068 549.673 4.91346 513.918 4.26158 454.72L0.409303 104.886Z" fill="#202020"/>
<path d="M237.186 240.719H231.484C232.127 230.562 232.739 203.285 217.049 185.619C208.646 176.161 197.215 171.652 183.066 171.652C183.056 171.652 183.045 171.652 183.037 171.652C168.273 171.652 156.384 176.331 147.699 186.103C131.946 203.831 132.434 232.594 133.043 240.719H128.897C118.333 240.719 109.425 249.277 109.425 259.834V347.805C109.425 358.363 118.331 366.665 128.897 366.665H237.186C247.749 366.665 255.771 358.363 255.771 347.805V259.834C255.771 249.277 247.749 240.719 237.186 240.719ZM196.449 336.194H171.306L175.308 308.147C169.278 305.246 165.08 298.95 165.08 291.812C165.08 281.895 173.123 273.759 183.043 273.759C192.961 273.759 201.002 281.749 201.002 291.664C201.002 298.321 197.333 304.437 191.948 307.531L196.449 336.194ZM214.189 240.719H150.34C149.936 236.656 148.474 210.642 160.623 197.02C165.968 191.028 173.304 187.903 183.049 187.903C183.057 187.903 183.06 187.903 183.068 187.903C192.184 187.903 199.075 190.864 204.128 196.536C216.22 210.106 214.604 236.656 214.189 240.719Z" fill="#62D5FA"/>
</svg>
